<?xml version="1.0" standalone="no"?>
<!DOCTYPE svg PUBLIC "-//W3C//DTD SVG 20010904//EN"
 "http://www.w3.org/TR/2001/REC-SVG-20010904/DTD/svg10.dtd">
<svg version="1.0" xmlns="http://www.w3.org/2000/svg"
 width="635.000000pt" height="635.000000pt" viewBox="0 0 635.000000 635.000000"
 preserveAspectRatio="xMidYMid meet">
<metadata>
Created by potrace 1.14, written by Peter Selinger 2001-2017
</metadata>
<g transform="translate(0.000000,635.000000) scale(0.100000,-0.100000)"
fill="#000000" stroke="none">
<path d="M0 6070 l0 -280 1163 -2 c639 0 1171 0 1182 1 20 2 20 1 0 -13 -11
-8 -23 -12 -27 -10 -4 3 -5 -2 -1 -12 5 -14 3 -15 -17 -4 -12 7 -20 7 -16 2 3
-6 2 -13 -4 -17 -5 -3 -10 -1 -10 5 0 6 -5 8 -11 4 -6 -4 -7 -9 -2 -13 5 -3
10 -16 10 -28 2 -21 -3 -23 -55 -24 -150 -4 -550 -6 -1344 -8 l-868 -1 0 -595
0 -595 660 0 c479 0 666 -3 685 -12 31 -14 33 -28 3 -22 -13 2 -17 2 -10 -2
13 -6 16 -30 5 -37 -5 -2 -2 -2 5 -1 6 2 12 -1 12 -5 0 -5 3 -18 6 -28 5 -15
4 -15 -5 -3 -9 13 -11 13 -11 -2 0 -17 -39 -18 -675 -18 l-675 0 0 -595 0
-595 763 -2 c419 -1 778 -3 797 -4 19 -1 50 -2 69 -3 32 -1 33 -2 16 -15 -16
-11 -17 -16 -6 -29 9 -12 10 -21 1 -36 -8 -17 -8 -19 4 -15 8 3 17 1 21 -5 4
-8 -239 -11 -829 -11 l-836 0 0 -605 0 -605 883 -1 c485 0 910 -1 944 -2 58
-2 80 -10 52 -19 -9 -3 -9 -9 -1 -25 9 -17 7 -24 -15 -44 -14 -13 -23 -18 -19
-12 4 7 2 13 -3 13 -6 0 -11 -7 -11 -15 0 -8 -4 -15 -10 -15 -5 0 -10 8 -10
18 -1 16 -1 16 -11 -1 -9 -16 -63 -17 -904 -17 l-895 0 0 -595 0 -595 638 -1
c644 -1 800 -4 811 -15 3 -3 -2 -11 -12 -18 -9 -7 -17 -18 -17 -25 0 -6 -3
-11 -8 -11 -4 0 -13 -9 -20 -20 -11 -18 -10 -19 13 -10 33 12 32 -2 0 -17 -28
-13 -132 -14 -917 -15 l-488 0 0 -194 0 -194 859 0 c810 0 860 1 865 18 3 9
10 64 16 122 6 58 15 121 20 140 5 19 13 76 19 125 9 77 38 213 96 455 8 30
27 118 44 195 17 77 38 160 46 185 8 25 23 79 34 120 103 388 193 676 219 702
39 39 675 219 697 197 19 -19 11 -973 -11 -1274 -28 -395 -58 -658 -97 -863
l-24 -122 27 0 c27 0 28 2 49 113 38 202 61 378 76 602 8 121 17 231 20 245 4
24 8 106 20 425 11 266 14 700 6 758 -4 32 -4 60 0 62 4 3 20 0 36 -6 15 -6
71 -13 123 -15 85 -4 103 -2 176 23 l82 29 5 -41 c22 -167 43 -366 52 -495 9
-125 18 -216 21 -221 2 -4 8 -46 14 -95 5 -49 12 -100 15 -114 3 -14 10 -65
16 -115 6 -49 15 -110 21 -135 5 -25 20 -106 33 -180 34 -190 81 -419 99 -482
9 -29 27 -107 41 -173 38 -175 42 -185 71 -185 13 0 24 4 24 8 0 5 -23 105
-51 223 -130 551 -218 1073 -254 1519 -12 148 -36 376 -45 430 -8 47 -14 131
-11 152 1 3 29 -2 64 -13 34 -10 233 -62 442 -115 209 -52 454 -116 545 -141
91 -25 227 -60 303 -79 171 -42 364 -96 482 -134 50 -16 105 -32 122 -35 32
-6 67 -39 100 -95 21 -36 42 -45 60 -27 11 11 0 32 -64 124 -43 61 -112 156
-153 210 -236 314 -470 653 -470 682 0 5 16 18 35 30 59 34 172 129 201 167
l27 35 34 -53 c19 -29 46 -75 60 -103 39 -76 322 -498 412 -616 145 -188 266
-353 311 -424 41 -63 45 -74 44 -130 -1 -33 -10 -85 -20 -115 -24 -69 -59 -91
-152 -97 -69 -5 -99 2 -402 85 -58 16 -165 46 -238 66 -73 20 -195 53 -270 75
-75 22 -227 63 -337 91 -110 29 -274 72 -365 97 -245 65 -250 67 -263 54 -7
-7 -6 -51 3 -146 7 -75 10 -138 8 -141 -3 -2 -25 24 -49 58 -24 35 -77 109
-119 164 -85 115 -141 204 -199 314 -21 41 -45 76 -54 78 -26 5 -27 -28 -2
-78 56 -110 246 -392 393 -583 l43 -56 -24 -88 c-14 -48 -44 -142 -67 -207
-25 -73 -39 -128 -36 -142 7 -26 93 -71 189 -99 31 -9 55 -20 52 -25 -7 -11
-31 -324 -44 -580 -6 -107 -13 -228 -16 -268 l-5 -72 30 0 30 0 1 93 c2 126
14 275 21 257 10 -25 57 -302 58 -342 0 -5 491 -8 1090 -8 l1090 0 0 194 0
194 -1092 0 c-1079 -1 -1092 0 -1099 19 -4 11 -9 40 -10 64 l-4 44 1103 3
1102 2 0 595 0 595 -154 0 -154 0 -36 57 -36 58 190 3 190 2 0 605 0 605 -592
1 c-715 1 -657 -1 -651 16 3 9 0 11 -10 8 -15 -7 -31 20 -21 36 3 5 2 9 -3 8
-24 -4 -34 3 -31 23 2 15 10 23 23 24 11 0 305 1 653 2 l632 2 0 595 0 595
-1218 0 -1217 0 -13 52 c-9 38 -9 55 -1 65 10 11 224 13 1230 13 l1219 0 0
595 0 595 -1525 0 -1525 0 -25 54 c-14 30 -25 57 -25 60 0 3 698 6 1550 6
l1550 0 0 280 0 280 -3175 0 -3175 0 0 -280z m2515 -201 c112 -83 258 -243
378 -415 31 -45 63 -84 71 -87 15 -6 35 13 89 89 51 71 95 168 114 253 10 39
20 71 23 71 15 0 147 -332 185 -465 26 -93 36 -115 58 -130 29 -20 46 -9 169
113 59 58 111 103 115 98 4 -4 7 -89 7 -189 0 -167 -2 -191 -28 -294 -28 -111
-29 -143 -3 -143 21 0 147 87 197 136 25 24 49 44 53 44 34 0 -36 -402 -74
-426 -6 -3 -29 14 -52 39 -23 24 -56 51 -72 60 -24 12 -34 28 -47 71 -10 30
-37 98 -62 150 -29 62 -41 98 -35 107 28 45 -7 104 -68 115 -24 4 -57 24 -87
50 -112 98 -253 150 -446 166 -174 14 -295 -3 -426 -60 -121 -52 -166 -83
-249 -167 -137 -140 -203 -323 -212 -590 -9 -259 19 -497 89 -745 41 -146 48
-185 51 -265 3 -57 9 -80 34 -125 17 -30 48 -98 67 -150 61 -162 144 -317 220
-413 25 -31 46 -63 46 -70 -1 -24 -116 -136 -176 -170 -7 -4 -10 26 -11 91 0
113 -7 150 -28 171 -14 14 -24 6 -110 -84 -51 -55 -96 -97 -99 -94 -3 3 3 41
13 85 10 43 27 123 37 177 23 126 18 132 -71 89 -36 -18 -91 -39 -123 -48 -60
-17 -302 -32 -302 -19 0 4 47 56 104 116 57 60 129 148 160 194 60 90 102 185
93 208 -3 8 -23 18 -44 21 -60 11 -184 52 -282 95 -176 77 -500 253 -501 273
0 3 21 17 48 31 168 86 440 266 495 327 23 26 51 64 62 85 l19 37 -35 32 c-20
17 -70 57 -110 88 -41 31 -136 117 -213 191 l-138 134 118 6 c176 9 430 71
465 113 17 20 6 126 -21 204 -48 136 -172 348 -241 410 -9 8 -29 32 -44 53
l-27 37 36 0 c124 0 451 -106 661 -214 151 -79 170 -61 169 159 0 144 -13 218
-65 365 -10 30 -19 56 -19 58 0 5 20 -8 75 -49z m245 -91 c0 9 44 12 185 12
102 0 185 -3 185 -6 0 -3 -7 -30 -16 -60 l-16 -55 -101 7 c-56 3 -110 6 -120
6 -20 -1 -59 33 -49 42 3 3 0 6 -7 6 -7 0 -11 -6 -8 -14 3 -8 0 -19 -7 -25
-10 -9 -13 -6 -11 14 2 13 0 24 -3 24 -26 -4 -41 3 -36 16 4 8 -1 17 -10 21
-9 3 -13 11 -10 16 4 6 10 5 15 -3 6 -10 9 -11 9 -1z m-2505 -538 c3 -5 -8
-30 -24 -54 -37 -53 -37 -56 -8 -56 26 0 61 -33 71 -66 14 -46 -39 -104 -94
-104 -32 0 -80 53 -80 88 0 18 20 61 56 116 55 85 67 96 79 76z m5958 4 c3 -4
-10 -29 -29 -58 l-34 -51 30 -3 c36 -4 70 -44 70 -84 0 -40 -48 -88 -88 -88
-16 0 -41 9 -56 21 -36 29 -36 91 0 145 89 131 91 134 107 118z m-3168 -19
c86 -10 160 -33 240 -72 73 -37 145 -91 145 -109 0 -6 -21 -20 -47 -32 -213
-94 -451 -182 -575 -211 -46 -10 -159 -24 -253 -31 -93 -6 -183 -16 -198 -22
-30 -12 -57 -53 -57 -88 0 -54 43 -79 130 -74 164 9 250 17 320 30 8 2 31 5
50 9 40 6 145 31 205 47 22 6 46 13 53 14 30 6 148 50 153 57 3 5 9 8 13 8 3
-1 20 6 36 14 17 9 30 13 30 9 0 -4 7 -1 15 6 8 6 20 8 26 4 8 -4 9 -3 5 4 -4
7 -1 12 9 12 9 0 27 7 40 16 13 9 29 13 35 9 5 -3 10 -1 10 5 0 6 5 8 10 5 6
-3 10 -2 10 4 0 5 17 15 38 22 20 6 42 16 49 21 15 12 32 -14 72 -109 39 -90
40 -106 7 -93 -17 6 -29 5 -42 -5 -25 -18 -8 -47 33 -56 36 -7 124 -54 154
-82 29 -27 79 -107 79 -126 0 -14 -18 -16 -113 -17 -61 -1 -150 -9 -197 -18
-90 -16 -209 -52 -224 -67 -18 -17 -26 -9 -26 24 0 49 19 108 46 144 43 56 21
102 -29 63 -61 -48 -90 -206 -63 -342 10 -53 34 -117 75 -200 64 -129 85 -212
77 -298 -9 -87 -76 -79 -132 16 -30 51 -55 69 -72 52 -9 -9 -3 -27 22 -72 19
-34 36 -70 38 -81 2 -13 10 -19 22 -17 14 3 17 -1 12 -14 -5 -13 -4 -14 7 -6
11 9 13 7 13 -11 -1 -18 5 -22 34 -23 44 -1 54 7 86 70 24 47 26 58 20 141 -3
50 -14 121 -25 158 -12 44 -15 67 -7 64 6 -2 38 -12 71 -22 110 -32 242 -4
332 71 l33 26 10 -27 c5 -14 10 -32 10 -40 0 -34 -132 -113 -234 -139 -65 -17
-83 -33 -61 -55 12 -13 22 -12 76 3 69 19 148 56 197 93 18 14 35 23 37 22 10
-11 21 -110 13 -115 -5 -3 -78 -40 -161 -81 -186 -92 -308 -161 -324 -182 -30
-40 -19 -188 22 -283 5 -13 2 -20 -11 -24 -62 -19 -102 -40 -126 -65 -34 -35
-30 -73 19 -177 41 -87 66 -107 128 -100 38 5 45 3 45 -12 0 -33 -36 -53 -82
-47 -34 5 -51 15 -81 47 -23 26 -43 40 -52 36 -23 -9 -18 -35 16 -77 39 -50
119 -77 174 -59 44 15 76 60 83 116 2 24 8 44 12 44 5 0 18 -20 30 -44 11 -24
39 -64 60 -89 l39 -44 -33 -31 c-18 -16 -43 -33 -55 -37 -12 -3 -19 -10 -16
-15 3 -5 0 -12 -6 -16 -8 -4 -9 -3 -5 4 4 7 1 12 -8 12 -10 0 -13 -6 -9 -17 3
-10 3 -15 -2 -11 -4 4 -14 3 -22 -4 -11 -9 -12 -7 -7 8 5 18 5 18 -6 1 -6 -9
-9 -21 -6 -26 3 -5 -1 -11 -9 -15 -8 -3 -17 0 -21 6 -5 7 -2 8 7 4 8 -4 5 0
-5 8 -19 15 -19 16 -1 16 10 0 16 2 13 5 -9 9 -98 -16 -92 -26 3 -5 0 -9 -5
-9 -6 0 -11 5 -11 11 0 7 -7 8 -17 4 -10 -4 -27 -8 -38 -7 -11 0 -14 -2 -7 -5
17 -7 15 -30 -4 -41 -11 -6 -13 -11 -5 -16 6 -4 11 -2 11 4 0 6 5 8 11 4 8 -4
7 -9 -2 -15 -8 -5 -25 3 -46 22 -34 29 -49 37 -38 20 3 -5 1 -13 -5 -16 -6 -4
-10 -3 -9 2 1 4 1 15 0 23 -1 13 -3 13 -10 1 -13 -20 -4 -38 22 -45 29 -7 19
-14 -31 -21 -37 -4 -44 -2 -52 18 -9 21 -9 22 -9 1 -1 -18 -7 -21 -41 -21 -30
0 -40 4 -40 16 0 17 19 52 20 36 0 -5 4 -3 9 5 12 17 5 30 -15 30 -8 0 -12 -4
-9 -10 3 -5 -1 -10 -9 -10 -9 0 -16 5 -16 11 0 6 -6 9 -12 6 -7 -2 -21 2 -30
11 -16 14 -18 14 -18 0 0 -18 -40 -32 -40 -15 0 7 -5 4 -11 -5 -5 -10 -16 -15
-25 -11 -9 3 -20 0 -25 -8 -8 -12 -12 -11 -24 5 -8 11 -18 17 -21 13 -11 -10
-34 13 -34 34 0 11 -5 19 -11 19 -5 0 -8 -4 -4 -9 3 -5 1 -13 -5 -16 -6 -4
-10 -3 -9 2 1 4 1 15 0 23 -1 13 -2 13 -11 0 -5 -8 -12 -11 -16 -7 -4 4 -1 15
8 24 15 14 18 14 40 -3 13 -11 23 -27 23 -36 0 -10 5 -17 10 -15 6 1 9 8 9 15
-1 6 1 12 5 13 3 0 14 2 23 4 10 2 20 -1 24 -6 3 -5 -1 -9 -8 -10 -7 0 -4 -4
7 -8 22 -9 45 -4 45 10 0 5 -3 8 -7 7 -5 -1 -19 4 -32 11 -12 7 -32 10 -43 8
-11 -3 -21 0 -24 8 -3 8 -12 11 -19 9 -7 -3 -16 -1 -20 5 -3 6 -1 11 5 11 6 0
8 5 5 10 -3 6 -11 10 -16 10 -6 0 -8 -4 -4 -9 10 -17 -33 -22 -67 -8 -18 8
-46 33 -63 55 -16 23 -34 42 -38 42 -11 0 2 20 14 20 5 0 9 -8 9 -17 0 -10 12
-29 27 -43 25 -24 26 -24 19 -3 -6 18 -4 22 8 17 9 -3 16 -15 16 -25 0 -10 6
-19 13 -19 8 0 7 -4 -3 -10 -12 -8 -10 -10 8 -10 15 0 21 4 16 12 -5 8 -2 9
10 5 10 -4 15 -3 11 3 -3 6 -10 10 -16 10 -5 0 -23 15 -39 33 -16 17 -30 26
-30 20 0 -7 -5 -13 -12 -13 -6 0 -8 3 -5 6 10 10 -12 44 -29 44 -8 0 -12 5 -9
10 3 6 1 10 -4 10 -6 0 -11 -4 -11 -10 0 -5 -5 -10 -11 -10 -5 0 -8 4 -4 9 3
6 0 13 -7 18 -7 4 -20 17 -28 27 -15 19 -15 19 15 1 25 -16 23 -12 -12 23 -67
68 -153 240 -139 278 3 9 1 12 -4 9 -6 -3 -10 0 -10 9 0 8 3 16 8 19 4 2 1 2
-5 1 -7 -2 -13 -2 -13 0 0 3 -2 11 -5 18 -4 10 4 14 32 13 48 -1 73 11 73 34
0 22 -19 31 -68 31 -47 0 -99 32 -113 68 -6 15 -11 46 -11 70 0 50 18 74 75
103 39 20 48 45 21 56 -9 3 -32 -3 -52 -13 -21 -10 -40 -20 -44 -22 -15 -7
-93 302 -113 448 -17 124 -30 323 -28 428 6 336 136 568 389 695 143 72 300
95 489 72z m-1493 -82 c32 -3 55 -9 53 -13 -9 -14 6 -39 19 -34 9 3 12 -6 12
-31 l-1 -35 -607 0 -608 0 0 60 0 60 538 0 c295 -1 563 -3 594 -7z m4388 -53
l0 -60 -1080 0 -1080 0 0 60 0 60 1080 0 1080 0 0 -60z m-2387 -94 c9 -24 -33
-52 -163 -109 -350 -154 -524 -203 -822 -232 -168 -16 -212 -11 -206 23 3 18
16 20 218 37 212 17 429 76 665 180 17 7 40 16 53 20 13 4 64 26 115 50 98 46
132 54 140 31z m296 -665 c11 -7 13 -23 8 -68 -18 -176 -108 -256 -287 -256
-77 -1 -91 2 -155 34 -62 31 -72 39 -97 89 -40 82 -40 102 2 122 62 29 78 31
85 9 7 -23 51 -36 70 -21 7 6 13 22 13 36 0 13 2 27 4 30 9 8 201 32 273 33
39 0 76 -3 84 -8z m877 -458 c102 -117 164 -222 221 -371 22 -58 26 -90 32
-237 7 -150 11 -177 34 -232 l25 -62 -20 -26 c-20 -25 -107 -87 -162 -115 -22
-11 -30 -12 -33 -3 -2 7 -10 10 -18 7 -7 -3 -16 -1 -20 5 -3 7 0 8 9 5 11 -4
16 0 16 12 0 9 -3 15 -6 11 -3 -3 -16 6 -28 20 -16 18 -33 26 -54 26 -18 0
-32 5 -32 11 0 5 -6 1 -14 -9 -8 -11 -19 -16 -30 -12 -9 4 -19 5 -22 4 -3 -1
-12 9 -19 23 -14 25 -14 25 -15 3 0 -28 -5 -28 -30 -3 -11 11 -26 20 -32 20
-7 -1 -2 -7 12 -15 l25 -14 -25 1 c-14 0 -33 -3 -42 -7 -10 -4 -18 -3 -18 3 0
5 -6 10 -12 9 -33 -1 -48 4 -48 17 0 8 -7 13 -16 12 -9 0 -19 5 -21 12 -4 9 1
10 21 2 14 -5 32 -7 40 -4 8 3 17 1 21 -5 3 -6 -1 -11 -11 -11 -14 0 -15 -3
-6 -12 10 -10 15 -10 21 1 7 11 11 10 20 -5 6 -11 11 -14 11 -7 0 27 -69 69
-97 59 -7 -3 -13 0 -13 7 0 7 -7 3 -15 -7 -8 -11 -15 -15 -15 -9 0 6 -11 14
-25 17 -16 4 -23 11 -19 18 5 7 2 9 -9 5 -10 -4 -20 0 -25 9 -5 9 -13 16 -18
16 -20 1 -34 11 -28 20 3 5 11 4 20 -3 8 -6 14 -9 14 -5 0 6 -76 56 -86 56 -4
0 0 -8 7 -17 8 -10 -2 -6 -21 9 -19 15 -34 32 -32 38 1 6 -2 9 -7 5 -6 -3 -19
3 -31 15 -11 11 -18 20 -16 20 3 0 -8 14 -24 31 -33 37 -44 68 -25 75 21 8
160 -65 222 -117 74 -62 152 -109 180 -109 34 0 69 20 84 47 40 74 150 131
225 117 45 -8 105 18 127 56 26 43 21 101 -18 205 -33 87 -180 381 -219 436
-47 67 22 30 90 -48z m-4436 12 c0 -11 -12 -15 -49 -15 -35 0 -51 -4 -55 -16
-11 -29 -6 -44 14 -44 52 0 103 -52 95 -96 -2 -10 -4 -25 -4 -32 -2 -30 -49
-62 -91 -62 -43 0 -90 33 -90 65 0 23 26 18 44 -10 19 -29 60 -33 88 -8 22 20
24 76 3 93 -15 13 -77 16 -94 5 -14 -8 -14 8 0 78 l12 57 63 0 c50 0 64 -3 64
-15z m5950 0 c0 -11 -12 -15 -50 -15 -48 0 -50 -1 -50 -29 0 -25 5 -30 35 -35
19 -4 43 -18 55 -33 68 -87 -54 -209 -135 -133 -24 22 -34 60 -17 60 5 0 18
-11 30 -25 26 -30 65 -32 92 -5 20 20 26 55 12 77 -13 20 -60 33 -86 23 -32
-12 -35 -6 -25 43 20 95 13 87 79 87 47 0 60 -3 60 -15z m-1829 -70 c10 -39
19 -74 19 -80 0 -5 -33 -25 -73 -43 -190 -86 -358 -175 -346 -183 10 -6 8 -8
-6 -7 -22 2 -137 -57 -129 -65 3 -3 1 -8 -5 -12 -6 -3 -11 -2 -11 4 0 12 -29
3 -46 -14 -6 -5 -9 -17 -7 -25 4 -12 3 -12 -5 -2 -8 11 -22 7 -73 -20 -35 -18
-69 -40 -76 -48 -7 -8 -13 -11 -13 -7 0 4 -34 -11 -76 -33 -42 -22 -78 -40
-79 -38 -6 6 -45 146 -45 160 0 8 19 25 43 38 23 12 69 38 102 56 44 23 59 37
57 50 -3 15 -1 16 12 5 13 -11 20 -10 43 6 15 10 55 31 88 47 33 16 69 34 80
39 11 6 64 32 118 59 60 31 95 53 91 60 -4 7 -2 8 5 4 7 -4 40 6 74 23 34 16
85 39 112 50 28 11 49 24 48 30 -2 6 4 8 12 5 7 -3 22 -1 32 5 29 17 35 9 54
-64z m-3176 -52 c44 -37 61 -61 49 -72 -3 -3 -199 -8 -435 -9 l-429 -4 0 61 0
60 143 3 c78 2 251 2 385 0 l243 -2 44 -37z m4705 -24 l0 -59 -510 0 -510 0
-30 53 c-16 28 -30 55 -30 59 0 8 680 15 933 10 l147 -3 0 -60z m-1959 -552
c-10 -9 -11 -8 -5 6 3 10 9 15 12 12 3 -3 0 -11 -7 -18z m-508 -64 c19 -54 21
-67 8 -58 -6 3 -34 -7 -65 -22 -44 -21 -58 -24 -69 -15 -19 16 -29 69 -18 90
8 14 87 49 117 51 5 1 18 -20 27 -46z m1291 -239 c4 -9 5 -18 3 -20 -6 -6 -67
20 -67 28 0 16 58 8 64 -8z m192 -69 c-11 -8 -24 -15 -30 -15 -5 0 -1 7 10 15
10 8 24 14 29 14 6 0 1 -6 -9 -14z m-1501 -228 c-23 -12 -49 11 -34 30 10 11
15 11 31 -4 17 -15 17 -18 3 -26z m-52 -14 c-3 -7 -10 -13 -15 -13 -6 0 -8 7
-4 15 3 9 0 15 -10 15 -8 0 -12 -4 -9 -10 3 -5 -1 -10 -9 -10 -8 0 -14 8 -13
19 0 11 5 17 9 15 4 -3 8 0 8 6 0 6 11 3 24 -7 13 -10 21 -24 19 -30z m-356
17 c9 -11 9 -17 0 -23 -9 -6 -9 -10 1 -14 6 -2 12 -9 12 -15 0 -6 -6 -6 -15 2
-8 7 -15 9 -15 6 0 -4 -5 -4 -12 0 -7 5 -5 11 8 21 16 12 17 15 4 23 -8 5 -18
6 -22 4 -4 -3 -8 0 -8 6 0 15 32 8 47 -10z m-56 -16 c6 -7 9 -19 6 -26 -4 -9
-6 -7 -6 3 -1 9 -8 20 -17 23 -14 5 -15 4 -4 -9 7 -8 9 -15 4 -15 -17 0 -31
15 -31 31 0 19 30 15 48 -7z m-71 6 c0 -5 -4 -10 -10 -10 -5 0 -10 5 -10 10 0
6 5 10 10 10 6 0 10 -4 10 -10z m3306 -111 c-1 -80 1 -93 17 -97 23 -6 22 -32
-2 -32 -10 0 -19 -6 -18 -12 1 -34 -4 -48 -18 -48 -10 0 -15 10 -15 30 l0 30
-66 0 c-36 0 -64 3 -62 8 10 24 154 219 159 216 3 -2 6 -45 5 -95z m-5956 -4
c0 -78 3 -95 15 -95 8 0 15 -7 15 -15 0 -8 -7 -15 -15 -15 -10 0 -15 -10 -15
-30 0 -20 -5 -30 -15 -30 -10 0 -15 10 -15 30 l0 30 -66 0 c-49 0 -65 3 -61
13 9 25 140 207 148 207 5 0 9 -43 9 -95z m1907 13 c11 -10 24 -18 29 -18 5 0
1 7 -10 15 -16 12 -14 14 25 13 l43 0 -23 -19 c-15 -12 -18 -19 -9 -19 8 0 19
5 25 11 7 7 13 7 17 1 3 -6 -8 -15 -24 -21 -32 -11 -33 -12 -24 -35 5 -12 10
-13 30 -4 13 6 21 14 19 19 -3 4 0 11 7 15 7 4 10 4 6 -1 -4 -4 -3 -16 3 -26
7 -15 6 -17 -5 -13 -8 3 -24 0 -36 -6 -15 -8 -265 -12 -908 -14 -488 -1 -895
0 -904 2 -15 4 -18 15 -18 64 l0 60 869 -3 c811 -4 870 -5 888 -21z m2505 -13
c47 -59 49 -61 54 -47 8 18 24 15 17 -4 -3 -9 0 -20 8 -25 8 -5 -49 -9 -146
-9 -88 -1 -198 -1 -245 -1 -324 -2 -464 3 -477 17 -17 17 -33 18 -33 3 0 -5 5
-7 10 -4 6 3 10 2 10 -4 0 -6 -17 -10 -37 -8 -36 2 -62 20 -63 42 0 6 5 3 10
-5 8 -13 10 -13 10 1 0 9 -7 22 -15 29 -47 39 31 46 547 44 l328 -1 22 -28z
m1258 -25 l0 -61 -119 2 c-98 1 -119 4 -114 15 5 14 -12 20 -20 7 -2 -5 -2 -2
-1 5 2 6 -1 12 -6 12 -8 0 -23 34 -25 55 0 12 77 21 198 23 l87 2 0 -60z
m-2555 -51 l0 -94 -47 -23 c-131 -65 -385 -37 -365 40 3 10 2 18 -3 18 -6 0
-30 74 -30 94 0 3 8 6 18 6 16 1 16 2 -2 15 -16 12 -15 35 2 35 11 0 58 -44
65 -60 4 -10 6 -8 6 6 1 12 9 25 19 30 25 11 73 13 66 3 -3 -5 0 -9 6 -9 6 0
8 -4 5 -10 -7 -12 43 6 62 22 10 8 13 7 13 -3 0 -10 3 -10 8 -3 9 15 71 23 79
11 3 -5 10 -3 15 4 7 11 11 11 15 2 2 -7 9 -13 14 -13 6 0 7 5 3 11 -4 8 1 9
16 4 17 -5 20 -4 15 5 -5 8 -3 11 6 8 11 -4 14 -27 14 -99z m357 83 c-9 -3 -8
-7 1 -17 7 -7 15 -11 20 -8 4 2 7 -5 7 -16 0 -25 -15 -28 -24 -5 -3 8 -10 12
-16 9 -6 -4 -7 1 -3 11 5 14 2 16 -15 12 -12 -4 -20 -2 -16 3 3 5 12 9 20 9 8
0 12 4 9 10 -4 6 1 7 11 3 11 -4 13 -8 6 -11z m-577 -12 c-3 -5 -12 -10 -18
-10 -7 0 -6 4 3 10 19 12 23 12 15 0z m500 0 c-3 -5 -14 -10 -23 -9 -14 0 -13
2 3 9 27 11 27 11 20 0z m-1410 -40 c-3 -5 -10 -10 -16 -10 -5 0 -9 5 -9 10 0
6 7 10 16 10 8 0 12 -4 9 -10z m67 -12 c-7 -7 -12 -8 -12 -2 0 6 3 14 7 17 3
4 9 5 12 2 2 -3 -1 -11 -7 -17z m1707 -1220 c12 -79 24 -155 27 -170 l5 -27
-58 20 c-79 27 -108 50 -95 75 5 10 27 70 48 132 21 61 41 112 45 112 4 0 16
-64 28 -142z m-3772 10 c26 -25 30 -69 8 -88 -13 -11 -12 -16 10 -42 33 -39
32 -73 -4 -109 -39 -39 -100 -41 -136 -4 -26 25 -33 55 -14 55 6 0 20 -11 31
-25 38 -49 113 -20 106 42 -2 22 -10 30 -38 39 -40 13 -46 36 -11 44 50 12 54
64 6 76 -20 5 -33 0 -55 -21 -30 -29 -49 -20 -30 14 24 45 89 55 127 19z
m5958 -3 c28 -27 31 -52 11 -81 -13 -17 -12 -21 4 -39 51 -55 11 -145 -65
-145 -47 0 -71 14 -90 50 -14 27 -14 30 1 30 9 0 25 -11 36 -25 22 -29 54 -32
86 -9 40 28 16 94 -35 94 -35 0 -32 38 5 42 19 2 28 9 30 26 8 52 -52 71 -85
27 -12 -16 -22 -22 -31 -16 -10 6 -7 15 13 39 34 41 84 44 120 7z m-4658 -43
c34 -2 54 -9 57 -19 5 -11 2 -13 -10 -9 -11 4 -14 1 -9 -13 11 -35 -14 -69
-54 -74 -20 -3 -280 -5 -578 -6 l-543 -2 0 66 0 66 543 -2 c298 -1 565 -4 594
-7z m4383 -59 l0 -63 -917 2 -916 3 -12 58 c-6 31 -9 59 -6 62 2 3 420 4 928
3 l923 -2 0 -63z m-4503 -645 c-3 -8 -6 -5 -6 6 -1 11 2 17 5 13 3 -3 4 -12 1
-19z"/>
<path d="M2766 5755 c4 -8 7 -15 9 -15 2 0 5 7 9 15 3 9 0 15 -9 15 -9 0 -12
-6 -9 -15z"/>
<path d="M164 5075 c-33 -50 20 -104 71 -71 27 18 34 63 13 84 -21 21 -66 14
-84 -13z"/>
<path d="M6128 5089 c-28 -16 -23 -65 7 -85 22 -15 29 -15 51 -4 33 18 42 55
19 80 -20 22 -50 25 -77 9z"/>
<path d="M2985 4998 c-69 -36 -163 -63 -281 -80 -80 -11 -103 -25 -88 -49 12
-19 177 3 304 41 68 20 155 74 155 95 0 30 -23 28 -90 -7z"/>
<path d="M2895 4503 c-4 -12 0 -22 10 -28 82 -49 108 -70 135 -106 16 -23 30
-46 30 -51 0 -4 -18 -5 -40 -2 -46 7 -213 -11 -280 -31 -60 -18 -176 -59 -223
-78 -37 -16 -37 -16 -37 8 0 44 39 147 65 175 27 28 32 70 9 77 -21 7 -77 -51
-103 -107 -22 -48 -25 -68 -25 -165 -1 -102 1 -114 28 -165 37 -72 112 -143
193 -181 60 -29 72 -31 151 -27 70 2 98 8 143 31 80 39 143 98 176 164 24 50
27 69 28 152 0 85 -3 103 -28 156 -15 33 -31 62 -35 65 -4 3 -15 17 -25 32
-22 35 -115 98 -143 98 -12 0 -25 -8 -29 -17z m198 -250 c13 -8 8 -152 -7
-188 -8 -19 -29 -55 -46 -79 -55 -81 -214 -135 -315 -107 -105 28 -225 145
-228 222 -2 30 2 35 43 55 25 12 59 24 77 28 26 6 32 4 37 -12 4 -11 19 -23
33 -27 34 -8 57 18 49 57 -5 25 -2 27 47 37 108 23 174 29 237 24 36 -3 68 -7
73 -10z"/>
<path d="M3041 3747 c-6 -8 -39 -27 -74 -43 -55 -25 -73 -29 -162 -29 -92 0
-104 2 -148 29 -33 18 -52 25 -59 18 -20 -20 -2 -47 53 -75 49 -25 67 -29 143
-29 48 1 110 8 139 16 74 22 162 76 162 101 0 24 -36 32 -54 12z"/>
<path d="M3266 3309 c-48 -11 -61 -22 -93 -72 -41 -65 -36 -227 7 -227 23 0
23 2 20 86 -3 105 40 164 120 164 28 0 31 3 28 28 -3 31 -21 36 -82 21z"/>
<path d="M2861 2634 c0 -11 3 -14 6 -6 3 7 2 16 -1 19 -3 4 -6 -2 -5 -13z"/>
<path d="M2950 2636 c0 -2 7 -7 16 -10 8 -3 12 -2 9 4 -6 10 -25 14 -25 6z"/>
<path d="M3290 2599 c0 -11 4 -18 10 -14 5 3 7 12 3 20 -7 21 -13 19 -13 -6z"/>
<path d="M3160 2593 c0 -10 6 -25 13 -34 10 -14 14 -14 25 -3 8 9 9 14 2 14
-6 0 -8 4 -5 10 4 6 -1 7 -12 3 -16 -6 -16 -5 -4 10 12 15 11 17 -3 17 -9 0
-16 -8 -16 -17z"/>
<path d="M3139 2594 c-1 -5 -1 -12 0 -16 0 -5 -3 -8 -9 -8 -5 0 -10 5 -10 12
0 6 -2 9 -5 7 -6 -7 6 -49 15 -49 10 0 23 50 15 58 -3 3 -6 1 -6 -4z"/>
<path d="M3080 2561 c0 -6 5 -13 10 -16 6 -3 10 1 10 9 0 9 -4 16 -10 16 -5 0
-10 -4 -10 -9z"/>
<path d="M4290 3052 c0 -6 9 -14 20 -17 11 -3 20 -13 20 -22 0 -8 5 -13 11
-11 19 6 12 20 -20 40 -17 11 -31 15 -31 10z"/>
<path d="M4640 2920 c0 -6 7 -10 15 -10 8 0 15 2 15 4 0 2 -7 6 -15 10 -8 3
-15 1 -15 -4z"/>
<path d="M4825 2840 c3 -5 8 -10 11 -10 2 0 4 5 4 10 0 6 -5 10 -11 10 -5 0
-7 -4 -4 -10z"/>
<path d="M3436 2607 c3 -10 9 -15 12 -12 3 3 0 11 -7 18 -10 9 -11 8 -5 -6z"/>
<path d="M6152 2425 c-18 -25 -32 -48 -32 -51 0 -2 16 -4 35 -2 35 2 35 2 35
50 0 26 -1 48 -3 48 -2 0 -18 -20 -35 -45z"/>
<path d="M218 2453 c-17 -21 -48 -70 -48 -77 0 -2 15 -4 32 -3 32 2 33 4 36
50 3 52 2 55 -20 30z"/>
<path d="M3785 2471 c-3 -5 -1 -12 5 -16 5 -3 10 -2 10 4 0 5 8 12 18 14 13 4
12 5 -5 6 -12 0 -24 -3 -28 -8z"/>
<path d="M3828 2433 c7 -3 16 -2 19 1 4 3 -2 6 -13 5 -11 0 -14 -3 -6 -6z"/>
<path d="M3825 2411 c-3 -5 -1 -12 5 -16 5 -3 10 1 10 9 0 18 -6 21 -15 7z"/>
<path d="M3045 2440 c-3 -5 -1 -10 4 -10 6 0 11 5 11 10 0 6 -2 10 -4 10 -3 0
-8 -4 -11 -10z"/>
<path d="M2985 2390 c6 -10 4 -12 -8 -7 -11 4 -17 1 -17 -9 0 -9 5 -12 12 -8
8 5 9 2 5 -10 -4 -9 -3 -15 2 -12 14 9 20 45 9 53 -7 4 -8 1 -3 -7z"/>
<path d="M2810 2178 c-5 -13 -27 -66 -49 -118 -22 -52 -65 -151 -96 -220 -31
-68 -81 -189 -112 -270 -31 -80 -66 -165 -78 -190 -12 -25 -20 -52 -17 -60 13
-39 70 -154 119 -237 49 -83 54 -97 48 -132 -11 -65 -58 -152 -145 -265 l-82
-109 30 -66 c47 -104 101 -294 123 -433 12 -77 12 -78 41 -78 29 0 30 1 23 43
-25 160 -89 395 -127 470 -31 63 -31 61 22 127 60 72 132 189 147 239 36 113
37 107 -21 206 -78 132 -116 211 -116 240 0 28 4 39 175 439 59 137 113 268
121 290 40 111 44 127 39 136 -11 18 -35 11 -45 -12z"/>
<path d="M2435 1778 c-20 -52 -232 -892 -250 -988 -8 -47 -24 -116 -34 -155
-11 -38 -29 -115 -41 -170 -13 -55 -44 -176 -71 -270 -27 -93 -49 -175 -49
-182 0 -10 32 -13 135 -13 l135 0 0 48 c0 26 7 196 15 377 8 182 17 398 21
480 6 141 10 166 71 405 35 140 73 284 83 320 27 92 30 153 7 158 -9 2 -19 -2
-22 -10z"/>
<path d="M1831 1764 c0 -11 3 -14 6 -6 3 7 2 16 -1 19 -3 4 -6 -2 -5 -13z"/>
<path d="M1850 1749 c0 -5 5 -7 10 -4 6 3 10 8 10 11 0 2 -4 4 -10 4 -5 0 -10
-5 -10 -11z"/>
</g>
</svg>
